# 3ds Max Wavefront OBJ Exporter v0.97b - (c)2007 guruware
# File Created: 25.11.2015 18:59:38

mtllib ball.mtl

#
# object Plane003
#

v  0.0000 -29.6185 -117.8391
v  0.0000 -29.6185 -86.5266
v  0.0000 -0.8501 -86.5266
v  0.0000 -0.8501 -117.8391
v  0.0000 -29.6185 -55.2141
v  -0.0000 -0.8501 -55.2141
v  -0.0000 27.9183 -86.5266
v  -0.0000 27.9183 -117.8391
v  -0.0000 27.9183 -55.2141
v  0.0000 -37.8012 -65.7897
v  0.0000 -30.9743 -55.2141
v  0.0000 -42.0450 -77.9674
v  0.0000 -42.8752 -86.5266
v  0.0000 -31.2511 -117.8391
v  0.0000 -33.0039 -115.6998
v  0.0000 -37.4322 -106.8433
v  0.0000 -41.8604 -95.4959
v  0.0000 -29.6185 -119.9471
v  0.0000 -8.8476 -132.1183
v  0.0000 -17.0528 -129.0571
v  0.0000 -23.5027 -125.3465
v  0.0000 -3.9590 -133.0459
v  0.0000 -0.8501 -133.4165
v  -0.0000 27.9183 -122.0488
v  -0.0000 22.4415 -126.7549
v  -0.0000 14.1177 -131.1839
v  0.0000 5.8799 -133.1215
v  -0.0000 31.8756 -117.8391
v  -0.0000 40.5367 -101.2886
v  -0.0000 37.0048 -110.3310
v  -0.0000 42.1046 -93.2611
v  -0.0000 42.6459 -86.5266
v  -0.0000 30.4822 -55.2141
v  -0.0000 35.8294 -62.3422
v  -0.0000 40.3926 -73.6999
v  -0.0000 27.9183 -52.6815
v  -0.0000 9.4798 -42.3683
v  -0.0000 20.5685 -47.7208
v  -0.0000 -0.3052 -40.5406
v  -0.0000 -0.8501 -40.6175
v  0.0000 -29.6185 -53.2038
v  0.0000 -21.5742 -46.4153
v  -0.0000 -10.4826 -41.9767
# 43 vertices

vn -1.0000 -0.0000 -0.0000
# 1 vertex normals

vt 0.2500 0.2500 0.0000
vt 0.5000 0.2500 0.0000
vt 0.5000 0.5000 0.0000
vt 0.2500 0.5000 0.0000
vt 0.7500 0.2500 0.0000
vt 0.7500 0.5000 0.0000
vt 0.5000 0.7500 0.0000
vt 0.2500 0.7500 0.0000
vt 0.7500 0.7500 0.0000
vt 0.6656 0.1789 0.0000
vt 0.7500 0.2382 0.0000
vt 0.5683 0.1420 0.0000
vt 0.5000 0.1348 0.0000
vt 0.2500 0.2358 0.0000
vt 0.2671 0.2206 0.0000
vt 0.3378 0.1821 0.0000
vt 0.4284 0.1436 0.0000
vt 0.2332 0.2500 0.0000
vt 0.1360 0.4305 0.0000
vt 0.1604 0.3592 0.0000
vt 0.1901 0.3031 0.0000
vt 0.1286 0.4730 0.0000
vt 0.1256 0.5000 0.0000
vt 0.2164 0.7500 0.0000
vt 0.1788 0.7024 0.0000
vt 0.1435 0.6301 0.0000
vt 0.1280 0.5585 0.0000
vt 0.2500 0.7844 0.0000
vt 0.3821 0.8597 0.0000
vt 0.3099 0.8290 0.0000
vt 0.4462 0.8733 0.0000
vt 0.5000 0.8780 0.0000
vt 0.7500 0.7723 0.0000
vt 0.6931 0.8187 0.0000
vt 0.6024 0.8584 0.0000
vt 0.7702 0.7500 0.0000
vt 0.8526 0.5898 0.0000
vt 0.8098 0.6861 0.0000
vt 0.8672 0.5047 0.0000
vt 0.8665 0.5000 0.0000
vt 0.7661 0.2500 0.0000
vt 0.8202 0.3199 0.0000
vt 0.8557 0.4163 0.0000
# 43 texture coords

g Plane003
usemtl 18___Default
s 1
f 1/1/1 2/2/1 3/3/1 
f 3/3/1 4/4/1 1/1/1 
f 2/2/1 5/5/1 6/6/1 
f 6/6/1 3/3/1 2/2/1 
f 4/4/1 3/3/1 7/7/1 
f 7/7/1 8/8/1 4/4/1 
f 3/3/1 6/6/1 9/9/1 
f 9/9/1 7/7/1 3/3/1 
f 10/10/1 11/11/1 5/5/1 
f 12/12/1 10/10/1 5/5/1 
f 12/12/1 5/5/1 2/2/1 
f 12/12/1 2/2/1 13/13/1 
f 13/13/1 2/2/1 1/1/1 
f 1/1/1 14/14/1 15/15/1 
f 1/1/1 15/15/1 16/16/1 
f 1/1/1 16/16/1 17/17/1 
f 13/13/1 1/1/1 17/17/1 
f 14/14/1 1/1/1 18/18/1 
f 19/19/1 20/20/1 21/21/1 
f 21/21/1 18/18/1 1/1/1 
f 19/19/1 21/21/1 1/1/1 
f 22/22/1 19/19/1 1/1/1 
f 22/22/1 1/1/1 4/4/1 
f 22/22/1 4/4/1 23/23/1 
f 23/23/1 4/4/1 8/8/1 
f 8/8/1 24/24/1 25/25/1 
f 8/8/1 25/25/1 26/26/1 
f 8/8/1 26/26/1 27/27/1 
f 23/23/1 8/8/1 27/27/1 
f 24/24/1 8/8/1 28/28/1 
f 29/29/1 30/30/1 28/28/1 
f 28/28/1 8/8/1 7/7/1 
f 29/29/1 28/28/1 7/7/1 
f 31/31/1 29/29/1 7/7/1 
f 31/31/1 7/7/1 32/32/1 
f 32/32/1 7/7/1 9/9/1 
f 9/9/1 33/33/1 34/34/1 
f 9/9/1 34/34/1 35/35/1 
f 32/32/1 9/9/1 35/35/1 
f 33/33/1 9/9/1 36/36/1 
f 37/37/1 38/38/1 36/36/1 
f 36/36/1 9/9/1 6/6/1 
f 37/37/1 36/36/1 6/6/1 
f 39/39/1 37/37/1 6/6/1 
f 39/39/1 6/6/1 40/40/1 
f 40/40/1 6/6/1 5/5/1 
f 5/5/1 41/41/1 42/42/1 
f 5/5/1 42/42/1 43/43/1 
f 40/40/1 5/5/1 43/43/1 
f 41/41/1 5/5/1 11/11/1 
# 50 faces

